<svg height="512" viewBox="0 0 64 64" width="512" xmlns="http://www.w3.org/2000/svg" xmlns:xlink="http://www.w3.org/1999/xlink"><linearGradient id="New_Gradient_Swatch" gradientUnits="userSpaceOnUse" x1="28" x2="28" y1="57.694" y2="7.373"><stop offset="0" stop-color="#e93e3a"/><stop offset=".35" stop-color="#ed683c"/><stop offset=".7" stop-color="#f3903f"/><stop offset="1" stop-color="#fdc70c"/></linearGradient><linearGradient id="New_Gradient_Swatch-2" x1="32" x2="32" xlink:href="#New_Gradient_Swatch" y1="57.694" y2="7.373"/><linearGradient id="New_Gradient_Swatch-3" x1="21.5" x2="21.5" xlink:href="#New_Gradient_Swatch" y1="57.694" y2="7.373"/><linearGradient id="New_Gradient_Swatch-4" x1="41" x2="41" xlink:href="#New_Gradient_Swatch" y1="57.694" y2="7.373"/><path d="m48 20h-40a2 2 0 0 0 -2 2v28a2 2 0 0 0 2 2h40a2 2 0 0 0 2-2v-28a2 2 0 0 0 -2-2zm0 2v20.587l-11.293-11.294a1 1 0 0 0 -1.414 0l-11.293 11.293-7.293-7.293a1 1 0 0 0 -1.414 0l-7.293 7.293v-20.586zm-7.914 15.5-2.086 2.086-1.293-1.293a1 1 0 0 0 -1.414 0l-1.293 1.293-2.086-2.086 4.086-4.086zm-20.5 3.5-1.586 1.586-1.293-1.293a1 1 0 0 0 -1.414 0l-1.293 1.293-1.586-1.586 3.586-3.586zm-11.586 4.414 3-3 2.293 2.293a1 1 0 0 0 1.414 0l1.293-1.293 1.293 1.293a1 1 0 0 0 1.414 0l2.293-2.293 7.586 7.586h-20.586zm23.414 4.586-6-6 5.086-5.086 2.793 2.793a1 1 0 0 0 1.414 0l1.293-1.293 1.293 1.293a1 1 0 0 0 1.414 0l2.793-2.793 6.5 6.5v4.586z" fill="url(#New_Gradient_Swatch)"/><path d="m59 8h-46a3 3 0 0 0 -3 3v5h-5a3 3 0 0 0 -3 3v34a3 3 0 0 0 3 3h46a3 3 0 0 0 3-3v-5h5a3 3 0 0 0 3-3v-34a3 3 0 0 0 -3-3zm-7 45a1 1 0 0 1 -1 1h-46a1 1 0 0 1 -1-1v-34a1 1 0 0 1 1-1h46a1 1 0 0 1 1 1zm-1-37h-35v-2h40v28h-2v-23a3 3 0 0 0 -3-3zm9 29a1 1 0 0 1 -1 1h-5v-2h2a2 2 0 0 0 2-2v-28a2 2 0 0 0 -2-2h-40a2 2 0 0 0 -2 2v2h-2v-5a1 1 0 0 1 1-1h46a1 1 0 0 1 1 1z" fill="url(#New_Gradient_Swatch-2)"/><path d="m19 33h5a3 3 0 0 0 .871-5.871 3 3 0 0 0 -5.7-.129h-.171a3 3 0 0 0 0 6zm0-4h1a1 1 0 0 0 1-1 1 1 0 0 1 2 0 1 1 0 0 0 1 1 1 1 0 0 1 0 2h-5a1 1 0 0 1 0-2z" fill="url(#New_Gradient_Swatch-3)"/><path d="m41 30a3 3 0 1 0 -3-3 3 3 0 0 0 3 3zm0-4a1 1 0 1 1 -1 1 1 1 0 0 1 1-1z" fill="url(#New_Gradient_Swatch-4)"/></svg>