<svg height="512pt" viewBox="0 -10 512.001 512" width="512pt" xmlns="http://www.w3.org/2000/svg"><path d="m364.527344 105.019531h-241.421875v-76.929687h241.421875c7.09375 0 12.839844 5.746094 12.839844 12.839844v51.25c0 7.089843-5.75 12.839843-12.839844 12.839843zm0 0" fill="#cafff0"/><path d="m377.371094 76.925781v14.792969c0 7.34375-5.957032 13.296875-13.296875 13.296875h-165.042969v-30.046875c4.351562 1.273438 8.949219 1.957031 13.714844 1.957031zm0 0" fill="#aaf2e4"/><path d="m121.917969 133.105469h-110.730469c-6.179688 0-11.1875-5.007813-11.1875-11.183594v-110.734375c0-6.179688 5.007812-11.1875 11.1875-11.1875h110.734375c6.175781 0 11.183594 5.007812 11.183594 11.1875v110.734375c0 6.175781-5.007813 11.183594-11.1875 11.183594zm0 0" fill="#5ed4cd"/><path d="m99.039062 133.105469h-67.113281v-23.378907c0-7.992187 6.480469-14.476562 14.476563-14.476562h38.160156c7.996094 0 14.476562 6.484375 14.476562 14.476562zm0 0" fill="#cafff0"/><path d="m85.328125 46.710938c0 10.960937-8.886719 19.84375-19.84375 19.84375-10.960937 0-19.84375-8.882813-19.84375-19.84375 0-10.960938 8.882813-19.84375 19.84375-19.84375 10.957031 0 19.84375 8.882812 19.84375 19.84375zm0 0" fill="#fff"/><path d="m499.160156 284.171875h-376.054687v-76.929687h376.054687c7.09375 0 12.839844 5.746093 12.839844 12.839843v51.25c0 7.089844-5.746094 12.839844-12.839844 12.839844zm0 0" fill="#ff8000"/><path d="m160.726562 207.242188h-27.621093v76.929687h365.59375c7.347656 0 13.300781-5.953125 13.300781-13.296875v-14.792969h-302.433594c-26.972656 0-48.839844-21.867187-48.839844-48.839843zm0 0" fill="#ff5f06"/><path d="m121.917969 312.257812h-110.730469c-6.179688 0-11.1875-5.007812-11.1875-11.183593v-110.734375c0-6.175782 5.007812-11.1875 11.1875-11.1875h110.734375c6.175781 0 11.183594 5.007812 11.183594 11.1875v110.734375c0 6.175781-5.007813 11.183593-11.1875 11.183593zm0 0" fill="#ffd782"/><path d="m99.039062 312.257812h-67.113281v-23.378906c0-7.996094 6.480469-14.476562 14.476563-14.476562h38.160156c7.996094 0 14.476562 6.480468 14.476562 14.476562zm0 0" fill="#fff7d2"/><path d="m85.328125 225.863281c0 10.957031-8.886719 19.84375-19.84375 19.84375-10.960937 0-19.84375-8.886719-19.84375-19.84375 0-10.960937 8.882813-19.84375 19.84375-19.84375 10.957031 0 19.84375 8.882813 19.84375 19.84375zm0 0" fill="#fff"/><path d="m440.089844 463.324219h-316.984375v-76.929688h316.984375c7.09375 0 12.839844 5.746094 12.839844 12.839844v51.25c0 7.089844-5.746094 12.839844-12.839844 12.839844zm0 0" fill="#c7f1ff"/><path d="m133.105469 386.394531h29.539062v.0625zm0 0" fill="#87dbff"/><path d="m452.933594 435.234375v14.789063c0 7.34375-5.957032 13.300781-13.300782 13.300781h-153.59375v-28.089844zm0 0" fill="#87dbff"/><path d="m121.917969 491.410156h-110.730469c-6.179688 0-11.1875-5.007812-11.1875-11.183594v-110.734374c0-6.175782 5.007812-11.1875 11.1875-11.1875h110.734375c6.175781 0 11.183594 5.007812 11.183594 11.1875v110.734374c0 6.175782-5.007813 11.183594-11.1875 11.183594zm0 0" fill="#57afff"/><path d="m99.039062 491.410156h-67.113281v-23.378906c0-7.996094 6.480469-14.476562 14.476563-14.476562h38.160156c7.996094 0 14.476562 6.480468 14.476562 14.476562zm0 0" fill="#c7f1ff"/><path d="m85.328125 405.015625c0 10.960937-8.886719 19.84375-19.84375 19.84375-10.960937 0-19.84375-8.882813-19.84375-19.84375s8.882813-19.84375 19.84375-19.84375c10.957031 0 19.84375 8.882813 19.84375 19.84375zm0 0" fill="#fff"/><path d="m199.03125 74.96875v30.046875h-65.925781v-76.925781h30.804687c0 22.207031 14.832032 40.953125 35.121094 46.878906zm0 0" fill="#29998b"/><path d="m199.03125 28.089844v46.878906c-20.289062-5.925781-35.121094-24.671875-35.121094-46.878906zm0 0" fill="#2fa39b"/><path d="m286.039062 435.234375v28.089844h-152.933593v-76.929688l29.539062.0625c.03125 26.941407 21.886719 48.777344 48.835938 48.777344zm0 0" fill="#3375d3"/><path d="m286.039062 386.695312v48.539063h-74.554687c-26.953125 0-48.808594-21.835937-48.839844-48.777344zm0 0" fill="#3a85dd"/></svg>