<svg height="512" viewBox="0 0 128 128" width="512" xmlns="http://www.w3.org/2000/svg"><g id="number"><text fill="#24253a" font-family="MyriadPro-Regular, Myriad Pro" font-size="40" letter-spacing=".002em" transform="translate(56.724 -510.265)">6<tspan x="-10.3" y="228">16</tspan><tspan x="-10.3" y="456">26</tspan><tspan x="-10.3" y="684">36</tspan><tspan x="-10.3" y="912">46</tspan><tspan x="-10.3" y="1140">56</tspan><tspan x="-10.3" y="1368">66</tspan><tspan x="-10.3" y="1596">76</tspan><tspan x="-10.3" y="1824">86</tspan><tspan x="-10.3" y="2052">96</tspan><tspan x="-20.599" y="2280">106</tspan><tspan x="-20.599" y="2508">116</tspan><tspan x="-20.599" y="2736">126</tspan><tspan x="-20.599" y="2964">136</tspan><tspan x="-20.599" y="3192">146</tspan><tspan x="-20.599" y="3420">156</tspan><tspan x="-20.599" y="3648">166</tspan><tspan x="-20.599" y="3876">176</tspan><tspan x="-20.599" y="4104">186</tspan><tspan x="-20.599" y="4332">196</tspan><tspan x="-20.599" y="4560">206</tspan><tspan x="-20.599" y="4788">216</tspan><tspan x="-20.599" y="5016">226</tspan><tspan x="-20.599" y="5244">236</tspan><tspan x="-20.599" y="5472">246</tspan></text></g><g id="Circle_Grid" data-name="Circle Grid"><circle cx="64" cy="64" fill="#f6c863" r="64"/></g><g id="icon"><path d="m73.988 24.284c2.012 6.486-2.119 15.869-6.947 22.576h-6.156c4.828-6.707 9.715-17.374 7.7-23.86z" fill="#da364c"/><path d="m88.756 40.645h-49.512a2.4 2.4 0 0 0 -2.386 2.367v59.6a2.388 2.388 0 0 0 2.386 2.388h49.512a2.4 2.4 0 0 0 2.386-2.386v-59.6a2.384 2.384 0 0 0 -2.386-2.369zm-19.029 8.141h-11.435a1.6 1.6 0 1 1 0-3.2h11.435a1.6 1.6 0 0 1 0 3.2z" fill="#eeefee"/><path d="m41.267 54.72h45.472v46.026h-45.472z" fill="#dbd8dd"/><path d="m51.219 59.412h25.569v26.819h-25.569z" fill="#69b0ee"/><path d="m76.8 86.23h-25.6a5.766 5.766 0 0 1 3.88-5.446l5.782-2.184c1.225.76 1.61 1.134 3.141 1.134s1.914-.374 3.14-1.134l5.778 2.185a5.766 5.766 0 0 1 3.879 5.445z" fill="#575b6d"/><g fill="#f4bb87"><path d="m60.862 74.977v3.623a4.728 4.728 0 0 0 6.281 0v-3.623z"/><path d="m58.214 70.361a1.644 1.644 0 0 0 0 3.281h.851v-3.281z"/><path d="m69.791 70.361a1.644 1.644 0 0 1 0 3.281h-.851v-3.281z"/></g><path d="m57.789 66.7v5.33a6.614 6.614 0 0 0 5.88 6.556 6.214 6.214 0 0 0 6.548-6.2v-4.694c0-.151-.122-.273-.273-.988-4.484-.693-9.407-2.095-12.155-.004z" fill="#fed19a"/><path d="m70.216 66.943v2.482h-.084c-.915 0-1.507-1.594-1.507-1.594a12.138 12.138 0 0 1 -7.914-1.594c-.225 2.088-2.922 3.187-2.922 3.187v-2.26a4.977 4.977 0 0 1 3.88-4.89 5.284 5.284 0 0 1 3.112-1.02 5.57 5.57 0 0 1 5.435 5.689z" fill="#414451"/><rect fill="#bbbbcd" height="1.859" rx=".929" width="38.985" x="44.511" y="89.847"/><rect fill="#bbbbcd" height="1.859" rx=".929" width="24.726" x="51.64" y="95.399"/><path d="m54.012 24.284c-2.012 6.486 2.119 15.869 6.947 22.576h6.156c-4.828-6.707-9.715-17.374-7.7-23.86z" fill="#ef5261"/></g></svg>