<?xml version="1.0" encoding="iso-8859-1"?>
<!-- Generator: Adobe Illustrator 19.0.0, SVG Export Plug-In . SVG Version: 6.00 Build 0)  -->
<svg version="1.1" id="Capa_1" xmlns="http://www.w3.org/2000/svg" xmlns:xlink="http://www.w3.org/1999/xlink" x="0px" y="0px"
	 viewBox="0 0 512.004 512.004" style="enable-background:new 0 0 512.004 512.004;" xml:space="preserve">
<path style="fill:#FFE0B2;" d="M134.885,439.586l-63.36-63.36c-4.165-4.164-10.917-4.164-15.083,0l-10.667,10.667
	c-1.022,1.019-1.821,2.24-2.347,3.584L0.763,497.144c-2.184,5.471,0.482,11.677,5.953,13.861c2.533,1.011,5.357,1.013,7.892,0.006
	l106.667-42.667c2.175-0.868,4.004-2.427,5.205-4.437c1.216-1.515,4.267-4.779,8.64-9.493
	C139.052,450.216,138.948,443.657,134.885,439.586z"/>
<path style="fill:#EC407A;" d="M495.632,16.141c-0.419-0.425-0.876-0.81-1.365-1.152c-22.093-20.093-55.986-19.598-77.483,1.131
	l-61.653,61.44c-4.171,4.16-4.179,10.914-0.019,15.085c0.006,0.006,0.013,0.013,0.019,0.019l63.573,63.573
	c4.16,4.136,10.88,4.136,15.04,0l61.653-60.992l0,0c21.908-21.579,22.175-56.833,0.595-78.741
	C495.873,16.382,495.753,16.262,495.632,16.141z"/>
<path style="fill:#FFC107;" d="M433.787,141.133L370.213,77.56c-4.165-4.164-10.917-4.164-15.083,0L56.464,376.226
	c-4.164,4.165-4.164,10.917,0,15.083l63.36,63.36c2.004,1.999,4.721,3.12,7.552,3.115h0.128c2.866-0.04,5.596-1.232,7.573-3.307
	c30.955-32.405,131.456-132.736,298.667-298.219c4.177-4.154,4.195-10.908,0.04-15.085c-0.013-0.014-0.027-0.027-0.04-0.04
	L433.787,141.133z"/>
<g>
</g>
<g>
</g>
<g>
</g>
<g>
</g>
<g>
</g>
<g>
</g>
<g>
</g>
<g>
</g>
<g>
</g>
<g>
</g>
<g>
</g>
<g>
</g>
<g>
</g>
<g>
</g>
<g>
</g>
</svg>
