<svg id="Layer_1_copy_2" height="512" viewBox="0 0 64 64" width="512" xmlns="http://www.w3.org/2000/svg" data-name="Layer 1 copy 2"><path d="m32 8a1 1 0 0 1 -1-1v-6a1 1 0 0 1 2 0v6a1 1 0 0 1 -1 1z" fill="#4db9d6"/><path d="m2 32h60.02v32h-60.02z" fill="#84d7f4"/><g opacity=".5"><path d="m16 32h4v32h-4z" fill="#2d99b2"/></g><g opacity=".5"><path d="m44 32h4v32h-4z" fill="#2d99b2"/></g><g fill="#2d99b2"><path d="m50 45a1 1 0 0 1 -1-1v-3a1 1 0 0 1 2 0v3a1 1 0 0 1 -1 1z"/><path d="m50 55a1 1 0 0 1 -1-1v-3a1 1 0 0 1 2 0v3a1 1 0 0 1 -1 1z"/><path d="m50 64a1 1 0 0 1 -1-1v-4a1 1 0 0 1 2 0v4a1 1 0 0 1 -1 1z"/><path d="m62 33h-7a1 1 0 0 1 -1-1v-4a1 1 0 0 1 2 0v3h5v-3a1 1 0 0 1 2 0v4a1 1 0 0 1 -1 1z"/><path d="m62 33h-18a1 1 0 0 1 0-2h18a1 1 0 0 1 0 2z"/><path d="m55 64a1 1 0 0 1 -1-1v-20a1 1 0 0 1 2 0v20a1 1 0 0 1 -1 1z"/><path d="m55 40a1 1 0 0 1 -1-1v-7a1 1 0 0 1 2 0v7a1 1 0 0 1 -1 1z"/><path d="m62.021 64a1 1 0 0 1 -1-1l-.021-31a1 1 0 0 1 1-1 1 1 0 0 1 1 1l.021 31a1 1 0 0 1 -1 1z"/><path d="m14 45a1 1 0 0 1 -1-1v-3a1 1 0 0 1 2 0v3a1 1 0 0 1 -1 1z"/><path d="m14 55a1 1 0 0 1 -1-1v-3a1 1 0 0 1 2 0v3a1 1 0 0 1 -1 1z"/><path d="m14 64a1 1 0 0 1 -1-1v-4a1 1 0 0 1 2 0v4a1 1 0 0 1 -1 1z"/><path d="m9 33h-7a1 1 0 0 1 -1-1v-4a1 1 0 0 1 2 0v3h5v-3a1 1 0 0 1 2 0v4a1 1 0 0 1 -1 1z"/><path d="m20 33h-3a1 1 0 0 1 0-2h3a1 1 0 0 1 0 2z"/><path d="m13 33h-11a1 1 0 0 1 0-2h11a1 1 0 0 1 0 2z"/><path d="m9 64a1 1 0 0 1 -1-1v-31a1 1 0 0 1 2 0v31a1 1 0 0 1 -1 1z"/><path d="m2 64a1 1 0 0 1 -1-1v-19a1 1 0 0 1 2 0v19a1 1 0 0 1 -1 1z"/><path d="m2 41a1 1 0 0 1 -1-1v-8a1 1 0 0 1 2 0v8a1 1 0 0 1 -1 1z"/></g><path d="m25 7h14v9h-14z" fill="#84d7f4"/><path d="m20 16h24v46h-24z" fill="#84d7f4"/><g opacity=".5"><path d="m25 12h14v4h-14z" fill="#2d99b2"/></g><g opacity=".4"><path d="m20 16h24v4h-24z" fill="#fff"/></g><path d="m32 26a1 1 0 0 1 -1-1v-3a1 1 0 0 1 2 0v3a1 1 0 0 1 -1 1z" fill="#4db9d6"/><path d="m32 36a1 1 0 0 1 -1-1v-3a1 1 0 0 1 2 0v3a1 1 0 0 1 -1 1z" fill="#4db9d6"/><path d="m32 45a1 1 0 0 1 -1-1v-3a1 1 0 0 1 2 0v3a1 1 0 0 1 -1 1z" fill="#4db9d6"/><path d="m32 55a1 1 0 0 1 -1-1v-3a1 1 0 0 1 2 0v3a1 1 0 0 1 -1 1z" fill="#4db9d6"/><path d="m32 64a1 1 0 0 1 -1-1v-4a1 1 0 0 1 2 0v4a1 1 0 0 1 -1 1z" fill="#4db9d6"/><path d="m26 64a1 1 0 0 1 -1-1v-4a1 1 0 0 1 2 0v4a1 1 0 0 1 -1 1z" fill="#4db9d6"/><path d="m38 64a1 1 0 0 1 -1-1v-4a1 1 0 0 1 2 0v4a1 1 0 0 1 -1 1z" fill="#4db9d6"/><path d="m26 26a1 1 0 0 1 -1-1v-3a1 1 0 0 1 2 0v3a1 1 0 0 1 -1 1z" fill="#4db9d6"/><path d="m38 26a1 1 0 0 1 -1-1v-3a1 1 0 0 1 2 0v3a1 1 0 0 1 -1 1z" fill="#4db9d6"/><path d="m26 55a1 1 0 0 1 -1-1v-23a1 1 0 0 1 2 0v23a1 1 0 0 1 -1 1z" fill="#4db9d6"/><path d="m38 55a1 1 0 0 1 -1-1v-23a1 1 0 0 1 2 0v23a1 1 0 0 1 -1 1z" fill="#4db9d6"/><path d="m32 14a1 1 0 0 1 -1-1v-2a1 1 0 0 1 2 0v2a1 1 0 0 1 -1 1z" fill="#2d99b2"/></svg>