<?xml version="1.0" standalone="no"?>
<!DOCTYPE svg PUBLIC "-//W3C//DTD SVG 20010904//EN"
 "http://www.w3.org/TR/2001/REC-SVG-20010904/DTD/svg10.dtd">
<svg version="1.0" xmlns="http://www.w3.org/2000/svg"
 width="512.000000pt" height="512.000000pt" viewBox="0 0 512.000000 512.000000"
 preserveAspectRatio="xMidYMid meet">

<g transform="translate(0.000000,512.000000) scale(0.100000,-0.100000)"
fill="#000000" stroke="none">
<path d="M640 4830 c-338 -160 -621 -298 -627 -307 -10 -12 -13 -79 -13 -250
l0 -234 25 -24 c22 -23 31 -25 125 -25 l100 0 0 -390 0 -390 -105 0 c-154 0
-145 18 -145 -301 0 -238 1 -259 19 -280 l19 -24 1237 0 1237 0 19 24 c18 21
19 42 19 280 0 319 9 301 -145 301 l-105 0 0 390 0 390 100 0 c94 0 103 2 125
25 l25 24 0 236 c0 233 0 237 -22 256 -30 26 -1227 588 -1253 588 -11 0 -297
-130 -635 -289z m1205 -124 l560 -264 3 -156 3 -156 -1136 0 -1135 0 0 154 0
155 108 51 c510 241 1019 479 1027 479 6 0 262 -118 570 -263z m-1195 -1106
l0 -390 -130 0 -130 0 0 390 0 390 130 0 130 0 0 -390z m360 0 l0 -390 -110 0
-110 0 0 390 0 390 110 0 110 0 0 -390z m390 0 l0 -390 -125 0 -125 0 0 390 0
390 125 0 125 0 0 -390z m360 0 l0 -390 -110 0 -110 0 0 390 0 390 110 0 110
0 0 -390z m400 0 l0 -390 -130 0 -130 0 0 390 0 390 130 0 130 0 0 -390z m250
-695 l0 -165 -1135 0 -1135 0 0 165 0 165 1135 0 1135 0 0 -165z"/>
<path d="M3391 4643 c-17 -16 -100 -113 -186 -218 -110 -134 -155 -197 -155
-215 0 -18 45 -81 155 -215 216 -264 191 -245 329 -245 154 0 158 3 164 134
l4 96 59 0 59 0 0 -328 0 -329 23 -21 c22 -21 32 -22 206 -22 180 0 182 0 206
25 l25 24 0 384 c0 358 -1 389 -20 451 -33 107 -101 184 -210 238 -62 32 -70
33 -206 36 l-142 4 -4 95 c-6 129 -10 133 -164 133 -110 0 -115 -1 -143 -27z
m161 -209 c6 -136 3 -134 212 -134 192 0 238 -11 301 -75 72 -71 75 -91 75
-472 l0 -333 -90 0 -90 0 0 325 0 326 -25 24 c-23 24 -28 25 -178 25 -201 0
-199 1 -205 -134 l-4 -96 -38 0 c-35 0 -41 6 -168 160 l-132 160 132 160 c127
154 133 160 168 160 l38 0 4 -96z"/>
<path d="M3085 2967 c-21 -12 -53 -42 -70 -65 l-30 -44 -3 -1336 c-2 -944 0
-1348 8 -1375 14 -49 65 -106 115 -128 38 -18 91 -19 945 -19 854 0 907 1 945
19 50 22 101 79 115 128 8 27 10 429 8 1368 -3 1322 -3 1330 -24 1370 -12 23
-41 54 -68 73 l-48 32 -927 0 -926 0 -40 -23z m1879 -139 c14 -20 16 -163 16
-1332 l0 -1310 -22 -23 c-21 -23 -25 -23 -225 -23 l-203 0 0 79 c0 86 -17 123
-73 165 -28 20 -39 21 -407 21 -368 0 -379 -1 -407 -21 -56 -42 -73 -79 -73
-165 l0 -79 -205 0 c-192 0 -206 1 -225 20 -20 20 -20 33 -20 1333 0 1172 2
1315 16 1335 l15 22 899 0 899 0 15 -22z m-576 -2625 l3 -63 -341 0 -340 0 0
65 0 65 338 -2 337 -3 3 -62z"/>
<path d="M3341 2623 l-21 -26 2 -993 c3 -938 4 -994 21 -1011 17 -17 60 -18
680 -21 364 -2 677 0 694 3 67 12 64 -42 61 1049 -3 952 -4 985 -22 1005 -19
21 -20 21 -707 21 l-688 0 -20 -27z m1297 -1010 l-3 -898 -587 -3 -588 -2 0
900 0 900 590 0 590 0 -2 -897z"/>
<path d="M861 1814 c-20 -26 -21 -37 -21 -409 0 -433 4 -464 77 -562 86 -117
195 -163 383 -163 l118 0 4 -96 c6 -131 10 -134 164 -134 138 0 113 -19 329
245 109 133 155 198 155 215 0 23 -136 199 -312 403 l-49 57 -119 0 c-159 0
-162 -3 -168 -134 l-4 -96 -59 0 -59 0 0 328 0 329 -23 21 c-22 21 -32 22
-209 22 l-187 0 -20 -26z m299 -439 l0 -326 25 -24 c23 -24 28 -25 178 -25
201 0 199 -1 205 134 l4 96 38 0 c35 0 41 -6 168 -160 l132 -160 -132 -160
c-127 -154 -133 -160 -168 -160 l-38 0 -4 96 c-6 136 -3 134 -212 134 -192 0
-238 11 -301 75 -72 71 -75 91 -75 472 l0 333 90 0 90 0 0 -325z"/>
</g>
</svg>
