<svg id="Flat" height="512" viewBox="0 0 512 512" width="512" xmlns="http://www.w3.org/2000/svg"><path d="m370.92993 421.9-74.92993-109.9h-136l74.93 109.9a41.71079 41.71079 0 0 1 7.35 26.1 42.642 42.642 0 0 1 -4.16 16 41.858 41.858 0 0 1 -38.12 24h136c33.97 0 54.07007-38.03 34.92993-66.1zm-72.72993 2.1a26.62526 26.62526 0 0 1 -22.16-11.86l-12.04-20.14h40l5.65991 10.57a13.60792 13.60792 0 0 1 2.34009 7.61 13.8005 13.8005 0 0 1 -13.8 13.82z" fill="#ccc"/><path d="m280 448v16h-41.88a42.642 42.642 0 0 0 4.16-16z" fill="#b3b3b3"/><path d="m296 448h16v16h-16z" fill="#b3b3b3"/><path d="m328 448h16v16h-16z" fill="#b3b3b3"/><rect fill="#b3b3b3" height="16" rx="8" width="160" x="192" y="472"/><path d="m440 120h32a16 16 0 0 1 16 16v240a16 16 0 0 1 -16 16h-32z" fill="#ccc"/><rect fill="#e6e6e6" height="272" rx="16" width="432" x="24" y="120"/><rect fill="#65dcff" height="208" rx="16" width="368" x="56" y="152"/><rect fill="#2b7cd4" height="288" rx="16" width="144" x="24" y="24"/><rect fill="#3ea7ff" height="224" rx="16" width="144" x="24" y="56"/><g fill="#ff6f35"><path d="m160 240h52.686l-10.34327 10.34277 11.31446 11.31446 24-24a8.00122 8.00122 0 0 0 0-11.31446l-24-24-11.31446 11.31446 10.34327 10.34277h-52.686z"/><path d="m128 224h16v16h-16z"/><path d="m96 224h16v16h-16z"/><path d="m176 176h-52.686l10.34327-10.34277-11.31446-11.31446-24 24a8.00122 8.00122 0 0 0 0 11.31446l24 24 11.31446-11.31446-10.34327-10.34277h52.686z"/><path d="m224 176h16v16h-16z"/><path d="m192 176h16v16h-16z"/></g></svg>