<?xml version="1.0" encoding="iso-8859-1"?>
<!-- Generator: Adobe Illustrator 19.0.0, SVG Export Plug-In . SVG Version: 6.00 Build 0)  -->
<svg version="1.1" id="Capa_1" xmlns="http://www.w3.org/2000/svg" xmlns:xlink="http://www.w3.org/1999/xlink" x="0px" y="0px"
	 viewBox="0 0 512 512" style="enable-background:new 0 0 512 512;" xml:space="preserve">
<path style="fill:#5BD23E;" d="M488,512H24c-4.418,0-8-3.582-8-8V224L256,8l240,216v280C496,508.418,492.418,512,488,512z"/>
<path style="fill:#CEA0DA;" d="M440,0H72c-4.418,0-8,3.582-8,8v496c0,4.418,3.582,8,8,8h368c4.418,0,8-3.582,8-8V8
	C448,3.582,444.418,0,440,0z"/>
<path style="fill:#BE81CE;" d="M256,340.011l-192-115.2V504c0,4.418,3.582,8,8,8h368c4.418,0,8-3.582,8-8V224.811L256,340.011z"/>
<path style="fill:#FFD49D;" d="M261.173,97.897c-2.984-2.53-7.361-2.531-10.346,0C246.443,101.614,208,134.927,208,160
	c0,26.467,21.533,48,48,48s48-21.533,48-48C304,134.927,265.557,101.614,261.173,97.897z"/>
<g>
	<path style="fill:#F1F0ED;" d="M256,240c-4.418,0-8-3.582-8-8v-72c0-4.418,3.582-8,8-8s8,3.582,8,8v72
		C264,236.418,260.418,240,256,240z"/>
	<path style="fill:#F1F0ED;" d="M296,392h-80c-4.418,0-8-3.582-8-8V232c0-4.418,3.582-8,8-8h80c4.418,0,8,3.582,8,8v152
		C304,388.418,300.418,392,296,392z"/>
</g>
<g>
	<path style="fill:#F96485;" d="M304,232c0-4.418-3.582-8-8-8h-4.186L208,307.814v25.373l96-96V232z"/>
	<path style="fill:#F96485;" d="M216,224c-4.418,0-8,3.582-8,8v53.187L269.187,224H216z"/>
	<polygon style="fill:#F96485;" points="304,259.814 208,355.814 208,380.186 304,284.185 	"/>
	<polygon style="fill:#F96485;" points="304,311.211 304,306.813 293.004,317.809 	"/>
</g>
<g>
	<polygon style="fill:#E2E1DB;" points="221.735,319.452 208,333.187 208,355.814 235.877,327.937 	"/>
	<path style="fill:#E2E1DB;" d="M256,340.011l-4.891-2.935L208,380.186V392c0,2.931,1.581,5.487,3.933,6.88l81.072-81.072
		L256,340.011z"/>
</g>
<polygon style="fill:#F95076;" points="221.735,319.452 208,311.211 208,333.187 "/>
<g>
	<polygon style="fill:#F83D67;" points="235.877,327.937 208,355.814 208,380.186 251.109,337.077 	"/>
	<path style="fill:#F83D67;" d="M211.933,398.88L211.933,398.88c0.583,0.346,1.214,0.618,1.879,0.809
		c0.044,0.013,0.09,0.023,0.135,0.035c0.267,0.072,0.539,0.127,0.816,0.171c0.08,0.012,0.158,0.026,0.239,0.036
		c0.328,0.042,0.66,0.069,0.999,0.069h80c4.418,0,8-3.582,8-8v-80.789l-10.996,6.597L211.933,398.88z"/>
</g>
<path style="fill:#84DD6E;" d="M18.971,510.218C20.345,511.331,22.094,512,24,512h464c4.418,0,8-3.582,8-8V224L18.971,510.218z"/>
<path style="fill:#5BD23E;" d="M279.324,354.006L18.971,510.218C20.345,511.331,22.094,512,24,512h464c4.418,0,8-3.582,8-8v-19.988
	L279.324,354.006z"/>
<path style="fill:#ADE99F;" d="M16,224v280c0,4.418,3.582,8,8,8h464c1.906,0,3.655-0.669,5.029-1.782L16,224z"/>
<g>
	<path style="fill:#F1F0ED;" d="M200,56c-4.418,0-8-3.582-8-8V32c0-4.418,3.582-8,8-8s8,3.582,8,8v16C208,52.418,204.418,56,200,56z
		"/>
	<path style="fill:#F1F0ED;" d="M200,104c-4.418,0-8-3.582-8-8V80c0-4.418,3.582-8,8-8s8,3.582,8,8v16
		C208,100.418,204.418,104,200,104z"/>
	<path style="fill:#F1F0ED;" d="M232,72h-16c-4.418,0-8-3.582-8-8s3.582-8,8-8h16c4.418,0,8,3.582,8,8S236.418,72,232,72z"/>
	<path style="fill:#F1F0ED;" d="M184,72h-16c-4.418,0-8-3.582-8-8s3.582-8,8-8h16c4.418,0,8,3.582,8,8S188.418,72,184,72z"/>
	<path style="fill:#F1F0ED;" d="M368,104c-4.418,0-8-3.582-8-8V80c0-4.418,3.582-8,8-8s8,3.582,8,8v16
		C376,100.418,372.418,104,368,104z"/>
	<path style="fill:#F1F0ED;" d="M368,152c-4.418,0-8-3.582-8-8v-16c0-4.418,3.582-8,8-8s8,3.582,8,8v16
		C376,148.418,372.418,152,368,152z"/>
	<path style="fill:#F1F0ED;" d="M400,120h-16c-4.418,0-8-3.582-8-8s3.582-8,8-8h16c4.418,0,8,3.582,8,8S404.418,120,400,120z"/>
	<path style="fill:#F1F0ED;" d="M352,120h-16c-4.418,0-8-3.582-8-8s3.582-8,8-8h16c4.418,0,8,3.582,8,8S356.418,120,352,120z"/>
	<path style="fill:#F1F0ED;" d="M144,200c-4.418,0-8-3.582-8-8v-16c0-4.418,3.582-8,8-8s8,3.582,8,8v16
		C152,196.418,148.418,200,144,200z"/>
	<path style="fill:#F1F0ED;" d="M144,248c-4.418,0-8-3.582-8-8v-16c0-4.418,3.582-8,8-8s8,3.582,8,8v16
		C152,244.418,148.418,248,144,248z"/>
	<path style="fill:#F1F0ED;" d="M176,216h-16c-4.418,0-8-3.582-8-8s3.582-8,8-8h16c4.418,0,8,3.582,8,8S180.418,216,176,216z"/>
	<path style="fill:#F1F0ED;" d="M128,216h-16c-4.418,0-8-3.582-8-8s3.582-8,8-8h16c4.418,0,8,3.582,8,8S132.418,216,128,216z"/>
</g>
<g>
</g>
<g>
</g>
<g>
</g>
<g>
</g>
<g>
</g>
<g>
</g>
<g>
</g>
<g>
</g>
<g>
</g>
<g>
</g>
<g>
</g>
<g>
</g>
<g>
</g>
<g>
</g>
<g>
</g>
</svg>
