<svg height="512pt" viewBox="-47 0 511 512" width="512pt" xmlns="http://www.w3.org/2000/svg"><path d="m143.550781 115.0625c-79.003906 0-143.050781 64.046875-143.050781 143.050781 0 79.007813 64.046875 143.050781 143.050781 143.050781 79.003907 0 143.050781-64.046874 143.050781-143.050781 0-79.003906-64.046874-143.050781-143.050781-143.050781zm0 250.636719c-59.417969 0-107.585937-48.167969-107.585937-107.585938s48.167968-107.585937 107.585937-107.585937 107.585938 48.167968 107.585938 107.585937-48.167969 107.585938-107.585938 107.585938zm0 0" fill="#ffdc61"/><path d="m274.03125 273.714844c-4.777344-.917969-14.5625-.886719-23.933594-.640625-2.261718 16.234375-8.136718 31.304687-16.796875 44.375 13.042969-2.175781 26.390625-1.78125 39.761719 1.46875 6.246094-13.28125 10.515625-27.679688 12.417969-42.816407-5.332031-1.128906-10.175781-2.140624-11.449219-2.386718zm0 0" fill="#f7ad48"/><path d="m91.023438 75.003906-4.578126 31.421875 43.398438 44.558594c2.332031 2.390625 5.527344 3.742187 8.867188 3.742187h9.683593c3.335938 0 6.535157-1.351562 8.863281-3.742187l43.398438-44.558594-4.578125-31.421875c-.835937-5.753906-5.769531-10.019531-11.585937-10.019531h-81.882813c-5.816406 0-10.75 4.265625-11.585937 10.019531zm0 0" fill="#00d1b6"/><g fill="#00b88e"><path d="m123.960938 106.425781 14.886718 44.558594c.800782 2.390625 1.898438 3.742187 3.042969 3.742187h3.320313c1.144531 0 2.242187-1.351562 3.042968-3.742187l14.890625-44.558594zm0 0"/><path d="m200.652344 106.421875h-37.507813l-1.566406-31.417969c-.296875-5.75-1.980469-10.019531-3.976563-10.019531h26.898438c5.808594 0 10.746094 4.269531 11.578125 10.019531zm0 0"/><path d="m129.503906 64.980469c-2 0-3.683594 4.273437-3.976562 10.023437l-1.566406 31.414063h-37.511719l4.574219-31.414063c.835937-5.75 5.773437-10.023437 11.582031-10.023437zm0 0"/></g><path d="m353.019531 292.667969c-18.839843-18.847657-42.078125-30.613281-66.417969-35.308594-11.691406-2.253906-23.65625-2.871094-35.496093-1.84375-29.105469 2.496094-57.519531 14.878906-79.785157 37.152344-20.453124 20.464843-32.5625 46.089843-36.335937 72.683593 2.828125.226563 5.691406.34375 8.570313.34375 7.472656 0 14.761718-.765624 21.804687-2.210937 3.75-18.28125 12.71875-35.695313 26.90625-49.871094 15.578125-15.570312 35.046875-24.863281 55.289063-27.878906 11.996093-1.78125 24.265624-1.351563 36.136718 1.289063 17.738282 3.925781 34.605469 12.800781 48.394532 26.589843 38.609374 38.609375 38.609374 101.203125 0 139.8125-38.609376 38.617188-101.214844 38.605469-139.820313 0-15.203125-15.195312-24.414063-34.105469-27.652344-53.804687-6.871093 1.019531-13.902343 1.542968-21.058593 1.542968-2.910157 0-5.804688-.085937-8.671876-.261718 3.632813 26.871094 15.789063 52.804687 36.4375 73.464844 50.175782 50.175781 131.535157 50.175781 181.699219 0 50.175781-50.175782 50.175781-131.523438 0-181.699219zm0 0" fill="#ffdc61"/><path d="m164.613281 399.621094c-6.871093 1.019531-13.902343 1.539062-21.058593 1.539062-2.910157 0-5.804688-.082031-8.671876-.261718 1.429688 10.585937 4.203126 21.019531 8.277344 31.046874 10.246094-.972656 20.179688-3.019531 29.679688-6.039062-3.992188-8.410156-6.742188-17.261719-8.226563-26.285156zm0 0" fill="#f7ad48"/><path d="m344.320312 229.988281-24.460937 18.242188-.789063 59.765625c-.042968 3.207031 1.210938 6.296875 3.480469 8.566406l6.578125 6.578125c2.269532 2.269531 5.359375 3.523437 8.566406 3.480469l59.769532-.785156 18.238281-24.464844c3.339844-4.476563 2.886719-10.726563-1.0625-14.679688l-55.644531-55.640625c-3.945313-3.949219-10.199219-4.402343-14.675782-1.0625zm0 0" fill="#ff87b3"/><path d="m397.464844 325.828125-25.488282-25.484375 20.28125-22.414062c3.707032-4.105469 5.464844-8.152344 4.109376-9.511719l18.277343 18.277343c3.945313 3.949219 4.398438 10.203126 1.058594 14.675782zm0 0" fill="#ffb6e0"/><path d="m377.277344 249.328125c-1.359375-1.359375-5.40625.398437-9.511719 4.105469l-22.414063 20.28125-25.488281-25.484375 24.457031-18.238281c4.472657-3.34375 10.730469-2.890626 14.675782 1.058593zm0 0" fill="#ffb6e0"/><path d="m371.976562 300.34375-40.398437 20.160156c-2.167969 1.078125-3.832031 1.25-4.605469.480469l-2.261718-2.265625c-.773438-.769531-.597657-2.433594.480468-4.605469l20.160156-40.394531zm0 0" fill="#ffb6e0"/><path d="m219.710938 53.710938c-1.945313 0-3.894532-.742188-5.382813-2.230469-2.972656-2.972657-2.972656-7.789063 0-10.761719l19.664063-19.667969c2.972656-2.96875 7.792968-2.96875 10.765624 0 2.972657 2.972657 2.972657 7.792969 0 10.765625l-19.664062 19.664063c-1.488281 1.488281-3.4375 2.230469-5.382812 2.230469zm0 0" fill="#395d6e"/><path d="m258.199219 82.746094h-23.5c-4.203125 0-7.609375-3.40625-7.609375-7.613282 0-4.203124 3.40625-7.609374 7.609375-7.609374h23.5c4.203125 0 7.609375 3.40625 7.609375 7.609374 0 4.207032-3.40625 7.613282-7.609375 7.613282zm0 0" fill="#395d6e"/><path d="m190.675781 38.722656c-4.203125 0-7.609375-3.410156-7.609375-7.613281v-23.5c0-4.203125 3.40625-7.609375 7.609375-7.609375s7.609375 3.40625 7.609375 7.609375v23.5c0 4.203125-3.40625 7.613281-7.609375 7.613281zm0 0" fill="#395d6e"/></svg>