<?xml version="1.0" encoding="iso-8859-1"?>
<!-- Generator: Adobe Illustrator 19.0.0, SVG Export Plug-In . SVG Version: 6.00 Build 0)  -->
<svg version="1.1" id="Capa_1" xmlns="http://www.w3.org/2000/svg" xmlns:xlink="http://www.w3.org/1999/xlink" x="0px" y="0px"
	 viewBox="0 0 512.003 512.003" style="enable-background:new 0 0 512.003 512.003;" xml:space="preserve">
<g>
	<path style="fill:#FEEB70;" d="M216.267,255.547c-8.437,0-15.278-6.84-15.278-15.278v-36.101c0-8.437,6.84-15.278,15.278-15.278
		s15.278,6.84,15.278,15.278v36.101C231.544,248.708,224.705,255.547,216.267,255.547z"/>
	<path style="fill:#FEEB70;" d="M295.744,255.547c-8.438,0-15.278-6.84-15.278-15.278v-36.101c0-8.437,6.84-15.278,15.278-15.278
		c8.437,0,15.278,6.84,15.278,15.278v36.101C311.022,248.708,304.182,255.547,295.744,255.547z"/>
</g>
<g>
	<path style="fill:#0053AD;" d="M467.388,214.522c-0.021,0-0.042,0-0.064,0l-63.951-0.06c-12.785-0.019-24.774-5.638-32.903-15.417
		c-8.027-9.658-11.328-22.259-9.057-34.574c0.068-0.373,0.152-0.744,0.249-1.112l3.419-13.008
		c-18.656-8.895-60.848-26.062-109.033-26.31c-48.221-0.273-90.441,16.906-109.075,25.796l3.365,13.082
		c0.092,0.356,0.17,0.716,0.236,1.078c2.237,12.322-1.1,24.914-9.156,34.55c-8.142,9.739-20.123,15.321-32.875,15.322
		c-0.021,0-0.042,0-0.064,0l-63.951-0.06C25.852,213.781,9.556,202.03,3.97,184.57c-8.611-26.918-3.152-54.837,15.785-80.739
		c19.719-26.97,54.204-51.264,97.104-68.404c42.656-17.042,92.173-26.443,139.386-26.325c47.209,0.067,96.665,9.566,139.26,26.742
		c42.825,17.27,77.23,41.67,96.876,68.703c18.884,25.985,24.27,53.943,15.575,80.854
		C502.328,202.826,486.029,214.521,467.388,214.522z"/>
	<path style="fill:#0053AD;" d="M443.303,502.902H68.709c-8.437,0-15.278-6.84-15.278-15.278V424.77
		c0-54.218,20.593-105.7,57.985-144.962l47.69-50.075c2.884-3.028,6.882-4.741,11.063-4.741h171.672
		c4.181,0,8.18,1.714,11.063,4.741l47.69,50.075c37.392,39.262,57.985,90.744,57.985,144.962v62.853
		C458.581,496.061,451.74,502.902,443.303,502.902z"/>
</g>
<path style="fill:#FEEB70;" d="M256.006,447.055c-44.09,0-79.959-35.87-79.959-79.96c0-44.089,35.87-79.959,79.959-79.959
	s79.959,35.87,79.959,79.959C335.965,411.185,300.095,447.055,256.006,447.055z"/>
<g>
	<path style="fill:#003773;" d="M395.506,35.844C352.911,18.668,303.455,9.17,256.246,9.102c-0.082,0-0.166,0.003-0.249,0.002
		V124.04c0.017,0,0.034,0,0.051,0c48.186,0.247,90.377,17.415,109.033,26.31l-3.419,13.008c-0.097,0.368-0.179,0.739-0.249,1.112
		c-2.271,12.315,1.029,24.916,9.057,34.574c8.128,9.78,20.118,15.398,32.903,15.417l63.951,0.06c0.021,0,0.043,0,0.064,0
		c18.641-0.001,34.941-11.696,40.57-29.121c8.694-26.911,3.308-54.869-15.575-80.854C472.736,77.515,438.331,53.114,395.506,35.844z
		"/>
	<path style="fill:#003773;" d="M352.905,229.733c-2.884-3.028-6.882-4.741-11.063-4.741h-85.845v277.91h187.305
		c8.437,0,15.278-6.84,15.278-15.278V424.77c0-54.218-20.593-105.7-57.985-144.962L352.905,229.733z"/>
</g>
<path style="fill:#FCB629;" d="M256.006,287.137c-0.003,0-0.006,0-0.009,0v159.917c0.003,0,0.006,0,0.009,0
	c44.09,0,79.959-35.87,79.959-79.96C335.965,323.006,300.095,287.137,256.006,287.137z"/>
<g>
</g>
<g>
</g>
<g>
</g>
<g>
</g>
<g>
</g>
<g>
</g>
<g>
</g>
<g>
</g>
<g>
</g>
<g>
</g>
<g>
</g>
<g>
</g>
<g>
</g>
<g>
</g>
<g>
</g>
</svg>
