<svg id="Layer_3" enable-background="new 0 0 64 64" height="512" viewBox="0 0 64 64" width="512" xmlns="http://www.w3.org/2000/svg"><g><circle cx="32" cy="32" fill="#c66b60" r="27"/><path d="m51.092 12.908c-4.886-4.886-11.636-7.908-19.092-7.908v27z" fill="#78b75b"/><path d="m51 51 .108.075c4.876-4.884 7.892-11.627 7.892-19.075 0-7.456-3.022-14.206-7.908-19.092l-19.092 19.092z" fill="#3d98f7"/><path d="m32 5c-14.912 0-27 12.088-27 27h27z" fill="#f5b953"/><g><path d="m1 61h13v2h-13z" fill="#8892a0"/></g><g><path d="m14 59h-13v-2h12.586l9.707-9.707 1.414 1.414-10 10c-.187.188-.441.293-.707.293z" fill="#8892a0"/></g><g><path d="m1 1h13v2h-13z" fill="#8892a0"/></g><g><path d="m23.293 16.707-9.707-9.707h-12.586v-2h13c.266 0 .52.105.707.293l10 10z" fill="#8892a0"/></g><g><path d="m50 1h13v2h-13z" fill="#8892a0"/></g><g><path d="m40.707 16.707-1.414-1.414 10-10c.187-.188.441-.293.707-.293h13v2h-12.586z" fill="#8892a0"/></g></g></svg>